<svg width="14" height="21" viewBox="0 0 14 21" fill="none" xmlns="http://www.w3.org/2000/svg">
<path d="M10 14C11.6569 14 13 12.433 13 10.5C13 8.567 11.6569 7 10 7C8.34315 7 7 8.567 7 10.5C7 12.433 8.34315 14 10 14Z" stroke="white" stroke-width="2" stroke-linecap="round" stroke-linejoin="round"/>
<path d="M7 7V1H4C3.20435 1 2.44129 1.31607 1.87868 1.87868C1.31607 2.44129 1 3.20435 1 4C1 4.79565 1.31607 5.55871 1.87868 6.12132C2.44129 6.68393 3.20435 7 4 7H7Z" stroke="white" stroke-width="2" stroke-linecap="round" stroke-linejoin="round"/>
<path d="M7 14V7H4C3.20435 7 2.44129 7.36875 1.87868 8.02513C1.31607 8.6815 1 9.57174 1 10.5C1 11.4283 1.31607 12.3185 1.87868 12.9749C2.44129 13.6313 3.20435 14 4 14H7Z" stroke="white" stroke-width="2" stroke-linecap="round" stroke-linejoin="round"/>
<path d="M7 7V1H10C10.7956 1 11.5587 1.31607 12.1213 1.87868C12.6839 2.44129 13 3.20435 13 4C13 4.79565 12.6839 5.55871 12.1213 6.12132C11.5587 6.68393 10.7956 7 10 7H7Z" stroke="white" stroke-width="2" stroke-linecap="round" stroke-linejoin="round"/>
<path d="M7 14V17C7 17.5933 6.82405 18.1734 6.49441 18.6667C6.16476 19.1601 5.69623 19.5446 5.14805 19.7716C4.59987 19.9987 3.99667 20.0581 3.41473 19.9424C2.83279 19.8266 2.29824 19.5409 1.87868 19.1213C1.45912 18.7018 1.1734 18.1672 1.05765 17.5853C0.94189 17.0033 1.0013 16.4001 1.22836 15.8519C1.45543 15.3038 1.83994 14.8352 2.33329 14.5056C2.82664 14.1759 3.40666 14 4 14H7Z" stroke="white" stroke-width="2" stroke-linecap="round" stroke-linejoin="round"/>
</svg>
