<svg width="24" height="24" viewBox="0 0 24 24" fill="none" xmlns="http://www.w3.org/2000/svg">
<path d="M16.6 14.025C16.4 13.925 15.1 13.325 14.9 13.225C14.7 13.125 14.5 13.125 14.3 13.325C14.1 13.525 13.7 14.125 13.5 14.325C13.4 14.525 13.2 14.525 13 14.425C12.3 14.125 11.6 13.725 11 13.225C10.5 12.725 10 12.125 9.6 11.525C9.5 11.325 9.6 11.125 9.7 11.025C9.8 10.925 9.9 10.725 10.1 10.625C10.2 10.525 10.3 10.325 10.3 10.225C10.4 10.125 10.4 9.925 10.3 9.825C10.2 9.725 9.7 8.525 9.5 8.025C9.4 7.325 9.2 7.325 9 7.325H8.5C8.3 7.325 8 7.525 7.9 7.625C7.3 8.225 7 8.925 7 9.725C7.1 10.625 7.4 11.525 8 12.325C9.1 13.925 10.5 15.225 12.2 16.025C12.7 16.225 13.1 16.425 13.6 16.525C14.1 16.725 14.6 16.725 15.2 16.625C15.9 16.525 16.5 16.025 16.9 15.425C17.1 15.025 17.1 14.625 17 14.225L16.6 14.025ZM19.1 4.925C15.2 1.025 8.9 1.025 5 4.925C1.8 8.125 1.2 13.025 3.4 16.925L2 22.025L7.3 20.625C8.8 21.425 10.4 21.825 12 21.825C17.5 21.825 21.9 17.425 21.9 11.925C22 9.325 20.9 6.825 19.1 4.925ZM16.4 18.925C15.1 19.725 13.6 20.225 12 20.225C10.5 20.225 9.1 19.825 7.8 19.125L7.5 18.925L4.4 19.725L5.2 16.725L5 16.425C2.6 12.425 3.8 7.425 7.7 4.925C11.6 2.425 16.6 3.725 19 7.525C21.4 11.425 20.3 16.525 16.4 18.925Z" fill="white"/>
</svg>
